<svg width="28" height="28" fill="none" xmlns="http://www.w3.org/2000/svg"><path d="M14 6.445l-.549.51a.75.75 0 001.098 0L14 6.446zm.893-.959l-.55-.511.55.511zm-1.786 0l.55-.511-.55.511zm-8.925 9.59l-.55.51.55-.51zm8.033 8.63l.549-.511-.55.51zm3.57 0l-.549-.511.55.51zm8.033-8.63l-.549-.512.55.511zm0-9.59l.55-.511-.55.511zm-19.636 0l-.55-.511.55.511zm10.367 1.47l.893-.959-1.098-1.022-.893.959 1.098 1.022zm-1.99-.959l.892.959 1.098-1.022-.893-.959-1.098 1.022zm-8.926 9.59l8.033 8.63 1.098-1.022-8.033-8.63-1.098 1.021zm12.701 8.63l8.033-8.63-1.098-1.023-8.033 8.63 1.098 1.023zm6.935-18.22c2.197 2.36 2.197 6.207 0 8.567l1.098 1.022c2.733-2.936 2.733-7.675 0-10.611L23.27 5.997zm1.098-1.022c-2.761-2.967-7.262-2.967-10.024 0l1.098 1.022c2.169-2.33 5.66-2.33 7.828 0l1.098-1.022zM4.731 5.997c2.168-2.33 5.66-2.33 7.827 0l1.098-1.022c-2.76-2.967-7.262-2.967-10.023 0L4.73 5.997zm6.935 18.22a3.153 3.153 0 004.668 0l-1.098-1.022c-.69.74-1.783.74-2.472 0l-1.098 1.022zM3.633 4.975C.9 7.911.9 12.65 3.633 15.586l1.098-1.022c-2.197-2.36-2.197-6.207 0-8.567L3.633 4.975z" fill="#1E2124"/></svg>