<svg width="46" height="46" fill="none" xmlns="http://www.w3.org/2000/svg"><path d="M23.943 14.2a.943.943 0 00-1.886 0h1.886zm-1.886 17.6a.943.943 0 001.886 0h-1.886zm9.743-7.857a.943.943 0 000-1.886v1.886zm-17.6-1.886a.943.943 0 000 1.886v-1.886zm7.857-7.857v17.6h1.886V14.2h-1.886zm9.743 7.857H14.2v1.886h17.6v-1.886zm4.4-22H9.8v1.886h26.4V.057zM.057 9.8v26.4h1.886V9.8H.057zM9.8 45.943h26.4v-1.886H9.8v1.886zM45.943 36.2V9.8h-1.886v26.4h1.886zM36.2 45.943c5.38 0 9.743-4.362 9.743-9.743h-1.886a7.857 7.857 0 01-7.857 7.857v1.886zM.057 36.2c0 5.38 4.362 9.743 9.743 9.743v-1.886A7.857 7.857 0 011.943 36.2H.057zM9.8.057C4.42.057.057 4.42.057 9.8h1.886A7.857 7.857 0 019.8 1.943V.057zm26.4 1.886A7.857 7.857 0 0144.057 9.8h1.886c0-5.38-4.362-9.743-9.743-9.743v1.886z" fill="#1E2124"/></svg>