<svg width="16" height="14" viewBox="0 0 16 14" fill="none" xmlns="http://www.w3.org/2000/svg">
<path fill-rule="evenodd" clip-rule="evenodd" d="M6.37439 0.906828C7.08292 -0.302275 8.91708 -0.302277 9.62561 0.906826L15.7633 11.3808C16.4519 12.5559 15.5556 14 14.1377 14H1.86231C0.444367 14 -0.451917 12.5559 0.236696 11.3808L6.37439 0.906828ZM8.79995 10.8889C8.79995 11.3184 8.44178 11.6667 7.99995 11.6667C7.55812 11.6667 7.19995 11.3184 7.19995 10.8889C7.19995 10.4593 7.55812 10.1111 7.99995 10.1111C8.44178 10.1111 8.79995 10.4593 8.79995 10.8889ZM8.59995 4.66667C8.59995 4.3445 8.33132 4.08333 7.99995 4.08333C7.66858 4.08333 7.39995 4.3445 7.39995 4.66667V8.55556C7.39995 8.87772 7.66858 9.13889 7.99995 9.13889C8.33132 9.13889 8.59995 8.87772 8.59995 8.55556V4.66667Z" fill="#EAB270"/>
</svg>
