<svg width="28" height="28" fill="none" xmlns="http://www.w3.org/2000/svg"><path d="M17.917 8.167A3.917 3.917 0 0114 12.083v1.5a5.417 5.417 0 005.417-5.416h-1.5zM14 12.083a3.917 3.917 0 01-3.917-3.916h-1.5A5.417 5.417 0 0014 13.583v-1.5zm-3.917-3.916A3.917 3.917 0 0114 4.25v-1.5a5.417 5.417 0 00-5.417 5.417h1.5zM14 4.25a3.917 3.917 0 013.917 3.917h1.5A5.417 5.417 0 0014 2.75v1.5zm7.417 16.167c0 .69-.58 1.517-1.978 2.216-1.353.677-3.275 1.117-5.439 1.117v1.5c2.346 0 4.508-.474 6.11-1.275 1.558-.779 2.807-1.994 2.807-3.558h-1.5zM14 23.75c-2.164 0-4.086-.44-5.44-1.117-1.397-.699-1.977-1.526-1.977-2.216h-1.5c0 1.564 1.25 2.779 2.807 3.558 1.602.801 3.764 1.275 6.11 1.275v-1.5zm-7.417-3.333c0-.69.58-1.518 1.978-2.217 1.353-.677 3.275-1.117 5.439-1.117v-1.5c-2.346 0-4.508.474-6.11 1.275-1.558.78-2.807 1.994-2.807 3.559h1.5zM14 17.083c2.164 0 4.086.44 5.44 1.117 1.397.7 1.977 1.526 1.977 2.217h1.5c0-1.565-1.25-2.78-2.807-3.559-1.602-.8-3.764-1.275-6.11-1.275v1.5z" fill="#1E2124"/></svg>