<svg width="23" height="23" viewBox="0 0 23 23" fill="none" xmlns="http://www.w3.org/2000/svg">
<path d="M14.8411 8.90138C15.0461 8.69635 15.0461 8.36394 14.8411 8.15892C14.6361 7.95389 14.3036 7.95389 14.0986 8.15892L14.8411 8.90138ZM8.15892 14.0986C7.9539 14.3036 7.9539 14.6361 8.15892 14.8411C8.36395 15.0461 8.69636 15.0461 8.90139 14.8411L8.15892 14.0986ZM14.0986 14.8411C14.3036 15.0461 14.6361 15.0461 14.8411 14.8411C15.0461 14.6361 15.0461 14.3036 14.8411 14.0986L14.0986 14.8411ZM8.90139 8.15892C8.69636 7.9539 8.36395 7.9539 8.15892 8.15892C7.9539 8.36395 7.9539 8.69636 8.15892 8.90139L8.90139 8.15892ZM14.0986 8.15892L8.15892 14.0986L8.90139 14.8411L14.8411 8.90138L14.0986 8.15892ZM14.8411 14.0986L8.90139 8.15892L8.15892 8.90139L14.0986 14.8411L14.8411 14.0986ZM17.8 0.475H5.2V1.525H17.8V0.475ZM0.475 5.2V17.8H1.525V5.2H0.475ZM5.2 22.525H17.8V21.475H5.2V22.525ZM22.525 17.8V5.2H21.475V17.8H22.525ZM17.8 22.525C20.4095 22.525 22.525 20.4095 22.525 17.8H21.475C21.475 19.8296 19.8296 21.475 17.8 21.475V22.525ZM0.475 17.8C0.475 20.4095 2.59046 22.525 5.2 22.525V21.475C3.17035 21.475 1.525 19.8296 1.525 17.8H0.475ZM5.2 0.475C2.59045 0.475 0.475 2.59045 0.475 5.2H1.525C1.525 3.17035 3.17035 1.525 5.2 1.525V0.475ZM17.8 1.525C19.8296 1.525 21.475 3.17035 21.475 5.2H22.525C22.525 2.59045 20.4095 0.475 17.8 0.475V1.525Z" fill="black"/>
</svg>
