<svg width="28" height="28" fill="none" xmlns="http://www.w3.org/2000/svg"><path d="M3.678 8.396l.428.617-.428-.617zm7.454-5.173l-.428-.616.428.616zm5.737 0l.427-.616-.427.616zm7.453 5.173l-.427.617.427-.617zM3.29 13.12l-.518.543.518-.543zm21.42 0l-.517-.543.517.543zm-13.043 7.13a.75.75 0 000 1.5v-1.5zm4.666 1.5a.75.75 0 000-1.5v1.5zm2.544 3.167H9.123v1.5h9.754v-1.5zM4.106 9.013l7.453-5.173-.855-1.233L3.25 7.78l.856 1.233zM16.44 3.84l7.454 5.173.855-1.233-7.454-5.173-.855 1.233zm6.563 11.482v5.69h1.5v-5.69h-1.5zm-18.008 5.69v-5.69h-1.5v5.69h1.5zm0-5.69a3.795 3.795 0 00-1.189-2.746l-1.035 1.085c.468.447.724 1.045.724 1.66h1.5zm19.197-2.746a3.795 3.795 0 00-1.189 2.746h1.5c0-.616.256-1.214.724-1.66l-1.035-1.086zM11.559 3.84a4.317 4.317 0 014.882 0l.855-1.233a5.817 5.817 0 00-6.592 0l.855 1.233zM9.123 24.917c-2.313 0-4.127-1.78-4.127-3.904h-1.5c0 3.017 2.553 5.404 5.627 5.404v-1.5zm9.754 1.5c3.074 0 5.627-2.387 5.627-5.404h-1.5c0 2.123-1.814 3.904-4.127 3.904v1.5zm5.018-17.404c1.238.859 1.368 2.542.298 3.563l1.035 1.085c1.767-1.686 1.528-4.488-.478-5.88l-.855 1.232zM3.25 7.78c-2.006 1.393-2.245 4.195-.478 5.881l1.035-1.085c-1.07-1.02-.94-2.704.299-3.563L3.25 7.78zm8.417 13.97h4.666v-1.5h-4.666v1.5z" fill="#1E2124"/></svg>