<svg width="26" height="24" fill="none" xmlns="http://www.w3.org/2000/svg"><path d="M6.416 6.71a.75.75 0 10-.832 1.247l.832-1.248zm3.995 3.564l.416-.624-.416.624zm5.178 0l-.416-.624.416.624zm4.827-2.317a.75.75 0 10-.832-1.248l.832 1.248zM6 2.25h14V.75H6v1.5zm17.917 3.917v11.666h1.5V6.167h-1.5zM20 21.75H6v1.5h14v-1.5zM2.083 17.833V6.167h-1.5v11.666h1.5zM6 21.75a3.917 3.917 0 01-3.917-3.917h-1.5A5.417 5.417 0 006 23.25v-1.5zm17.917-3.917A3.917 3.917 0 0120 21.75v1.5a5.417 5.417 0 005.417-5.417h-1.5zM20 2.25a3.917 3.917 0 013.917 3.917h1.5A5.417 5.417 0 0020 .75v1.5zM6 .75A5.417 5.417 0 00.583 6.167h1.5A3.917 3.917 0 016 2.25V.75zm-.416 7.207l4.411 2.941.832-1.248-4.411-2.94-.832 1.247zm10.42 2.941l4.412-2.94-.832-1.249-4.411 2.941.832 1.248zm-6.009 0a5.417 5.417 0 006.01 0l-.832-1.248a3.917 3.917 0 01-4.346 0l-.832 1.248z" fill="#1E2124"/></svg>